<svg width="26" height="26" viewBox="0 0 26 26" fill="none" xmlns="http://www.w3.org/2000/svg">
<path fill-rule="evenodd" clip-rule="evenodd" d="M8.24834 0.0438095C6.60919 0.270888 5.24299 1.52437 4.80851 3.19983C4.58285 4.07012 4.77104 5.29886 5.24508 6.05007C5.35581 6.22552 5.50039 6.46601 5.56642 6.58447L5.68637 6.79986L4.14211 6.79217C3.29275 6.78792 2.70835 6.80361 2.84347 6.82712L3.08914 6.86977L2.70448 6.9198C2.02002 7.00872 1.34816 7.56091 1.1604 8.18879C1.06207 8.51766 1.05574 12.1865 1.15291 12.548C1.23613 12.8577 1.62989 13.3117 1.96278 13.4819C2.08949 13.5467 2.38092 13.6269 2.61044 13.6601C2.8525 13.6952 4.89327 13.7211 7.47096 13.7218L11.9142 13.723L11.8931 10.3383L11.8721 6.95371H13.0222H14.1724L14.171 10.323L14.1696 13.6922H18.8864H23.6031L23.9241 13.5468C24.2592 13.395 24.6907 12.9811 24.8155 12.6917C24.9152 12.4606 24.9575 8.82708 24.8662 8.33083C24.7873 7.90098 24.567 7.5675 24.1519 7.24922C23.6999 6.90263 23.4425 6.8614 21.7298 6.8614C20.9022 6.8614 20.2942 6.851 20.3786 6.83832C20.5028 6.81968 20.5116 6.8078 20.425 6.77611C20.3308 6.74164 20.3445 6.69998 20.5392 6.42995C21.2935 5.3836 21.4889 4.07775 21.0777 2.83121C20.7116 1.72111 19.7526 0.688245 18.7334 0.306211C17.553 -0.136315 15.9924 -0.0954531 14.9829 0.404489C14.328 0.728738 13.6171 1.45287 13.2847 2.1341C13.1496 2.41103 13.0213 2.63946 12.9997 2.6418C12.978 2.64407 12.914 2.53029 12.8576 2.38887C12.7016 1.99822 12.1638 1.25385 11.8149 0.945601C11.4135 0.590952 10.6372 0.20658 10.0909 0.092056C9.69544 0.00916307 8.68859 -0.0172371 8.24834 0.0438095ZM8.73116 2.33533C8.05303 2.44143 7.38049 2.99362 7.20391 3.58925C6.96149 4.4071 7.15435 5.36693 7.67598 5.93875C8.29453 6.6169 8.98562 6.79266 10.8894 6.75604L11.8106 6.73832L11.7943 5.78447C11.7745 4.63449 11.6984 4.01442 11.5381 3.69971C11.3608 3.35153 10.5505 2.54444 10.4647 2.63054C10.4449 2.65029 10.4287 2.63497 10.4287 2.59644C10.4287 2.4202 9.29922 2.24653 8.73116 2.33533ZM16.2775 2.3394C15.7967 2.40967 15.3448 2.65989 14.95 3.07472C14.3304 3.72556 14.1807 4.26372 14.1772 5.85481C14.1756 6.56478 14.1903 6.70017 14.2724 6.73174C14.3259 6.75229 14.9157 6.76909 15.5833 6.76909C16.629 6.76909 16.8455 6.75241 17.1471 6.64841C17.7037 6.45653 18.0999 6.21149 18.3894 5.87985C18.7613 5.45388 18.8727 5.09677 18.87 4.3383C18.8676 3.61737 18.7576 3.30371 18.3649 2.89835C18.0704 2.59429 17.7209 2.42973 17.1844 2.34253C16.7467 2.27133 16.7434 2.27133 16.2775 2.3394ZM10.0114 6.87623C10.238 6.88798 10.625 6.88811 10.8713 6.87635C11.1177 6.86466 10.9449 6.88512 10.472 6.88506C9.99905 6.88493 9.78492 6.86441 10.0114 6.87623ZM6.0219 15.1845L2.75134 15.201V19.2283C2.75134 21.9218 2.77376 23.3634 2.81896 23.5816C2.99437 24.4269 3.62048 25.2922 4.29597 25.6225C4.88504 25.9106 5.05007 25.9233 8.57079 25.9513L11.9028 25.9777L11.9021 20.7888C11.9017 17.935 11.8843 15.4961 11.8633 15.3692L11.8253 15.1384L10.5589 15.1532C9.86237 15.1614 7.82074 15.1755 6.0219 15.1845ZM14.1346 16.9073C14.1569 17.8467 14.1751 20.2769 14.1751 22.3077L14.1752 26L17.4765 25.9646C21.2026 25.9246 21.2705 25.917 21.964 25.4643C22.4296 25.1604 22.7058 24.8366 22.9557 24.3016C23.2396 23.6936 23.2711 23.1216 23.2517 18.923L23.2346 15.2307L18.6643 15.2149L14.0941 15.1991L14.1346 16.9073Z" fill="#959595"/>
</svg>
