<svg width="16" height="16" viewBox="0 0 16 16" fill="none" xmlns="http://www.w3.org/2000/svg">
<rect width="16" height="16" rx="8" fill="#AF51DE"/>
<path fill-rule="evenodd" clip-rule="evenodd" d="M8.69951 7.30025C8.93382 7.53456 8.93382 7.91446 8.69951 8.14878L6.93491 9.91338C6.70059 10.1477 6.3207 10.1477 6.08638 9.91338C5.85207 9.67906 5.85207 9.29916 6.08638 9.06485L7.85098 7.30025C8.0853 7.06593 8.46519 7.06593 8.69951 7.30025Z" fill="white"/>
<path fill-rule="evenodd" clip-rule="evenodd" d="M11.0245 4.90377C11.0245 4.90377 11.0245 4.90377 11.0245 4.90377L3.93848 7.26596C3.91959 7.27226 3.91391 7.2792 3.91128 7.28268C3.90682 7.28858 3.90167 7.2993 3.90029 7.31412C3.89892 7.32895 3.90201 7.34046 3.90533 7.34713C3.9073 7.35108 3.91162 7.35895 3.92901 7.36861L6.80192 8.96466C6.89986 9.01908 6.98061 9.09983 7.03502 9.19777L8.63102 12.0706C8.64068 12.088 8.64861 12.0924 8.65256 12.0944C8.65923 12.0977 8.67074 12.1008 8.68557 12.0994C8.70039 12.098 8.71111 12.0929 8.71701 12.0884C8.72049 12.0858 8.72742 12.0801 8.73372 12.0612L11.0959 4.97522C11.1015 4.95847 11.1 4.94978 11.0987 4.94473C11.0968 4.93732 11.0918 4.92718 11.0822 4.91752C11.0725 4.90786 11.0624 4.90289 11.055 4.90098C11.0499 4.89967 11.0412 4.89819 11.0245 4.90377ZM10.645 3.76535C11.627 3.438 12.5617 4.37264 12.2343 5.3547L9.87214 12.4407C9.52637 13.478 8.11263 13.6087 7.58204 12.6533C7.58202 12.6533 7.58206 12.6534 7.58204 12.6533L6.06929 9.9304L3.34645 8.41771C3.34642 8.41769 3.34649 8.41773 3.34645 8.41771C2.39112 7.88712 2.52167 6.47334 3.55898 6.12755C3.55898 6.12755 3.55897 6.12756 3.55898 6.12755L10.645 3.76535Z" fill="white"/>
</svg>
