<svg width="16" height="16" viewBox="0 0 16 16" fill="none" xmlns="http://www.w3.org/2000/svg">
<rect width="16" height="16" rx="8" fill="#007AFF"/>
<path d="M12.9445 6.19567L12.0992 4.22461C11.9738 3.93237 11.9112 3.78623 11.8102 3.67897C11.721 3.58416 11.6108 3.51156 11.4885 3.46696C11.3501 3.4165 11.191 3.4165 10.8728 3.4165H5.12726C4.80908 3.4165 4.65 3.4165 4.51157 3.46696C4.38923 3.51156 4.27905 3.58416 4.18984 3.67897C4.0889 3.78623 4.02623 3.93236 3.9009 4.22461L3.05558 6.19567H12.9445Z" fill="white"/>
<path fill-rule="evenodd" clip-rule="evenodd" d="M3.83051 8.63342C4.05798 8.71682 4.30374 8.76234 4.56017 8.76234C4.98257 8.76234 5.37641 8.63844 5.70679 8.42556C6.03717 8.63844 6.43101 8.76234 6.85341 8.76234C7.27581 8.76234 7.66964 8.63844 8.00003 8.42556C8.33041 8.63844 8.72424 8.76234 9.14664 8.76234C9.56904 8.76234 9.96288 8.63844 10.2933 8.42556C10.6236 8.63844 11.0175 8.76234 11.4399 8.76234C11.6963 8.76234 11.9421 8.71681 12.1695 8.63341V11.2498C12.1695 11.7165 12.1695 11.9499 12.0787 12.1282C11.9987 12.285 11.8711 12.4124 11.7142 12.4923C11.5358 12.5832 11.3023 12.5832 10.8353 12.5832H5.16476C4.69773 12.5832 4.46421 12.5832 4.28583 12.4923C4.12892 12.4124 4.00135 12.285 3.9214 12.1282C3.83051 11.9499 3.83051 11.7165 3.83051 11.2498V8.63342ZM4.6644 10.3332C4.6644 10.0998 4.6644 9.98314 4.70984 9.89401C4.74982 9.81561 4.8136 9.75187 4.89206 9.71192C4.98125 9.6665 5.098 9.6665 5.33152 9.6665H6.91594C7.14945 9.6665 7.26621 9.6665 7.3554 9.71192C7.43385 9.75187 7.49764 9.81561 7.53761 9.89401C7.58306 9.98314 7.58306 10.0998 7.58306 10.3332V11.0832C7.58306 11.3165 7.58306 11.4332 7.53761 11.5223C7.49764 11.6007 7.43385 11.6645 7.3554 11.7044C7.26621 11.7498 7.14945 11.7498 6.91594 11.7498H5.33152C5.098 11.7498 4.98125 11.7498 4.89206 11.7044C4.8136 11.6645 4.74982 11.6007 4.70984 11.5223C4.6644 11.4332 4.6644 11.3165 4.6644 11.0832V10.3332Z" fill="white"/>
<path d="M4.56015 8.20817C3.73164 8.20817 3.05364 7.56422 3 6.74984H13C12.9464 7.56422 12.2684 8.20817 11.4399 8.20817C10.9868 8.20817 10.5788 8.01563 10.2932 7.70798C10.0077 8.01563 9.59965 8.20817 9.14662 8.20817C8.69359 8.20817 8.28556 8.01563 8 7.70798C7.71444 8.01563 7.30641 8.20817 6.85338 8.20817C6.40035 8.20817 5.99232 8.01563 5.70677 7.70798C5.42121 8.01563 5.01318 8.20817 4.56015 8.20817Z" fill="white"/>
</svg>
