<svg width="16" height="16" viewBox="0 0 16 16" fill="none" xmlns="http://www.w3.org/2000/svg">
<rect width="16" height="16" rx="8" fill="#35C759"/>
<path d="M11.9 4.3999H4.10005C3.93436 4.3999 3.80005 4.53422 3.80005 4.6999V5.2999C3.80005 5.46559 3.93436 5.5999 4.10005 5.5999H11.9C12.0657 5.5999 12.2 5.46559 12.2 5.2999V4.6999C12.2 4.53422 12.0657 4.3999 11.9 4.3999Z" fill="white"/>
<path fill-rule="evenodd" clip-rule="evenodd" d="M3.19995 4.6998C3.19995 4.20275 3.60289 3.7998 4.09995 3.7998H11.9C12.397 3.7998 12.8 4.20275 12.8 4.6998V5.2998C12.8 5.79686 12.397 6.1998 11.9 6.1998H4.09995C3.60289 6.1998 3.19995 5.79686 3.19995 5.2998V4.6998Z" fill="white"/>
<path fill-rule="evenodd" clip-rule="evenodd" d="M10.9999 8C11.3313 8 11.5999 8.26863 11.5999 8.6V12.2C11.5999 12.5314 11.3313 12.8 10.9999 12.8C10.6685 12.8 10.3999 12.5314 10.3999 12.2V8.6C10.3999 8.26863 10.6685 8 10.9999 8Z" fill="white"/>
<path fill-rule="evenodd" clip-rule="evenodd" d="M9.07564 10.2753C9.30995 10.041 9.68985 10.041 9.92417 10.2753L10.9999 11.3511L12.0756 10.2753C12.31 10.041 12.6899 10.041 12.9242 10.2753C13.1585 10.5097 13.1585 10.8896 12.9242 11.1239L11.4242 12.6239C11.1899 12.8582 10.81 12.8582 10.5756 12.6239L9.07564 11.1239C8.84132 10.8896 8.84132 10.5097 9.07564 10.2753Z" fill="white"/>
<path d="M8.22745 11.9725C7.88785 11.6329 7.70005 11.1805 7.70005 10.6999C7.70005 10.2193 7.88725 9.7669 8.22745 9.4273C8.49565 9.1591 8.83345 8.9857 9.20005 8.9245V8.5999C9.20005 8.1373 9.38065 7.7191 9.66805 7.3999H3.80005V9.7999C3.80005 11.1235 4.87645 12.1999 6.20005 12.1999H8.45485L8.22745 11.9725Z" fill="white"/>
</svg>
