<svg width="26" height="26" viewBox="0 0 26 26" fill="none" xmlns="http://www.w3.org/2000/svg">
<path d="M25.8556 8.3092L23.6578 3.18445C23.332 2.42462 23.169 2.04467 22.9066 1.76578C22.6746 1.51929 22.3881 1.33051 22.0701 1.21456C21.7102 1.08337 21.2965 1.08337 20.4693 1.08337H5.53088C4.70362 1.08337 4.28999 1.08337 3.93009 1.21456C3.61201 1.33051 3.32552 1.51929 3.09358 1.76578C2.83114 2.04467 2.66821 2.4246 2.34233 3.18445L0.144508 8.3092H25.8556Z" fill="#007AFF"/>
<path fill-rule="evenodd" clip-rule="evenodd" d="M2.15934 14.6473C2.75074 14.8642 3.38973 14.9825 4.05645 14.9825C5.15469 14.9825 6.17867 14.6604 7.03766 14.1069C7.89665 14.6604 8.92063 14.9825 10.0189 14.9825C11.1171 14.9825 12.1411 14.6604 13.0001 14.1069C13.8591 14.6604 14.883 14.9825 15.9813 14.9825C17.0795 14.9825 18.1035 14.6604 18.9625 14.1069C19.8215 14.6604 20.8454 14.9825 21.9437 14.9825C22.6104 14.9825 23.2494 14.8642 23.8408 14.6473V21.45C23.8408 22.6635 23.8408 23.2702 23.6045 23.7337C23.3966 24.1414 23.065 24.4728 22.657 24.6806C22.1932 24.9167 21.5861 24.9167 20.3718 24.9167H5.62837C4.4141 24.9167 3.80696 24.9167 3.34317 24.6806C2.9352 24.4728 2.60352 24.1414 2.39565 23.7337C2.15934 23.2702 2.15934 22.6635 2.15934 21.45V14.6473ZM4.32743 19.0667C4.32743 18.46 4.32743 18.1566 4.44559 17.9249C4.54952 17.721 4.71536 17.5553 4.91935 17.4514C5.15124 17.3334 5.45481 17.3334 6.06195 17.3334H10.1814C10.7886 17.3334 11.0921 17.3334 11.324 17.4514C11.528 17.5553 11.6939 17.721 11.7978 17.9249C11.916 18.1566 11.916 18.46 11.916 19.0667V21.0167C11.916 21.6234 11.916 21.9268 11.7978 22.1585C11.6939 22.3624 11.528 22.5281 11.324 22.632C11.0921 22.75 10.7886 22.75 10.1814 22.75H6.06195C5.45481 22.75 5.15124 22.75 4.91935 22.632C4.71536 22.5281 4.54952 22.3624 4.44559 22.1585C4.32743 21.9268 4.32743 21.6234 4.32743 21.0167V19.0667Z" fill="#007AFF"/>
<path d="M4.05639 13.5417C1.90227 13.5417 0.139462 11.8674 0 9.75004H26C25.8605 11.8674 24.0977 13.5417 21.9436 13.5417C20.7657 13.5417 19.7049 13.0411 18.9624 12.2412C18.22 13.0411 17.1591 13.5417 15.9812 13.5417C14.8033 13.5417 13.7425 13.0411 13 12.2412C12.2576 13.0411 11.1967 13.5417 10.0188 13.5417C8.84092 13.5417 7.78004 13.0411 7.03759 12.2412C6.29514 13.0411 5.23426 13.5417 4.05639 13.5417Z" fill="#007AFF"/>
</svg>
